<svg preserveAspectRatio="none" width="100%" height="100%" overflow="visible" style="display: block;" viewBox="0 0 15.6445 15.6444" fill="none" xmlns="http://www.w3.org/2000/svg">
<g id="$">
<path id="Bubble" d="M13.9651 12.6655C15.0168 11.3335 15.6445 9.65115 15.6445 7.82222C15.6445 3.50213 12.1423 0 7.82223 0C3.50213 0 0 3.50213 0 7.82222C0 12.1423 3.50213 15.6444 7.82223 15.6444C9.30489 15.6444 10.6912 15.2319 11.8727 14.5154C12.873 15.0959 14.416 15.0095 14.7781 14.9797C14.8065 14.9774 14.8349 14.979 14.8632 14.9805C14.8869 14.9818 14.9107 14.9831 14.9345 14.9822C15.0387 14.9779 15.1277 14.906 15.1576 14.8096C15.1843 14.7236 15.1204 14.6441 15.0522 14.5853C14.7799 14.3502 14.0747 13.654 13.9651 12.6655Z" fill="var(--fill-0, #FFBC32)"/>
<path id="Path" d="M7.8681 8.58633L7.86953 8.58663C8.23492 8.66913 8.4816 8.76669 8.63543 8.88486C8.78285 8.99801 8.84498 9.12934 8.84498 9.29755C8.84498 9.51198 8.75059 9.69084 8.57781 9.81956C8.40263 9.94998 8.14417 10.0301 7.82263 10.0301C7.39368 10.0301 7.06247 9.90587 6.86221 9.70631C6.84996 9.69415 6.83751 9.68169 6.82497 9.66913C6.7214 9.56544 6.60586 9.44978 6.48045 9.35794C6.33868 9.25404 6.17499 9.17325 5.98747 9.17325C5.77917 9.17325 5.58523 9.2658 5.46299 9.4133C5.33864 9.56343 5.28896 9.77193 5.38018 9.98375C5.65827 10.6299 6.27216 11.0584 7.05041 11.2358V11.7602C7.05041 12.1397 7.3485 12.4443 7.71245 12.4443H7.7986C8.16255 12.4443 8.46064 12.1397 8.46064 11.7602V11.2123C9.52473 10.9719 10.288 10.2139 10.3111 9.10934V9.10713C10.3111 8.58703 10.1707 8.16661 9.86388 7.84336C9.56014 7.52322 9.10334 7.30919 8.49089 7.17636L8.4905 7.17628L7.7539 7.01C7.39875 6.92731 7.16346 6.83557 7.01824 6.72366C6.88068 6.61761 6.82258 6.49296 6.82258 6.32273C6.82258 6.1085 6.91687 5.93549 7.08142 5.81263C7.24846 5.68792 7.49027 5.61407 7.77783 5.61407C8.12809 5.61407 8.41402 5.74145 8.59389 5.93919C8.70072 6.05665 8.82325 6.18858 8.96081 6.29059C9.09913 6.39315 9.25976 6.47082 9.44336 6.47082C9.64898 6.47082 9.83995 6.37917 9.95894 6.23321C10.0803 6.08435 10.1259 5.87811 10.0309 5.67079C9.75322 5.06465 9.16595 4.6289 8.46064 4.43548V3.88393C8.46064 3.50437 8.16255 3.19983 7.7986 3.19983H7.71245C7.3485 3.19983 7.05041 3.50437 7.05041 3.88393V4.45889C6.07563 4.72152 5.35644 5.45393 5.35644 6.46553C5.35644 6.97499 5.50309 7.39972 5.79917 7.7276C6.09344 8.05336 6.52717 8.27453 7.08649 8.39621L7.8681 8.58633Z" fill="var(--fill-0, white)"/>
</g>
</svg>
