<svg preserveAspectRatio="none" width="100%" height="100%" overflow="visible" style="display: block;" viewBox="0 0 37.334 37.334" fill="none" xmlns="http://www.w3.org/2000/svg">
<path id="Subtract" d="M18.666 0C28.9754 0 37.3336 8.35675 37.334 18.666C37.334 28.9756 28.9756 37.334 18.666 37.334C8.35675 37.3336 0 28.9754 0 18.666C0.000351607 8.35696 8.35696 0.000351599 18.666 0ZM16.334 11.1611C15.7153 10.804 14.9527 10.804 14.334 11.1611C13.7929 11.4736 13.4332 12.0184 13.3516 12.6279L13.334 12.8936V24.4404C13.3342 25.1547 13.7154 25.8157 14.334 26.1729C14.9525 26.5298 15.7154 26.5298 16.334 26.1729L26.334 20.3994C26.9526 20.0423 27.3338 19.3813 27.334 18.667C27.334 17.9525 26.9527 17.2919 26.334 16.9346L16.334 11.1611Z" fill="var(--fill-0, white)"/>
</svg>
