<svg preserveAspectRatio="none" width="100%" height="100%" overflow="visible" style="display: block;" viewBox="0 0 50.452 26.132" fill="none" xmlns="http://www.w3.org/2000/svg">
<g id="Pattern">
<path id="Ellipse 586 (Stroke)" fill-rule="evenodd" clip-rule="evenodd" d="M33.2262 3.83755C34.0588 3.83755 34.7338 3.16257 34.7338 2.32994C34.7338 1.49731 34.0588 0.822332 33.2262 0.822332C32.3935 0.822332 31.7186 1.49731 31.7186 2.32994C31.7186 3.16257 32.3935 3.83755 33.2262 3.83755ZM33.2262 4.65988C34.513 4.65988 35.5561 3.61673 35.5561 2.32994C35.5561 1.04315 34.513 0 33.2262 0C31.9394 0 30.8962 1.04315 30.8962 2.32994C30.8962 3.61673 31.9394 4.65988 33.2262 4.65988Z" fill="var(--fill-0, #2398FF)"/>
<path id="Union" fill-rule="evenodd" clip-rule="evenodd" d="M50.1106 18.1106C50.1106 17.8653 49.9118 17.6664 49.6665 17.6664L49.1334 17.6664L49.1334 17.1337C49.1334 16.8884 48.9346 16.6896 48.6893 16.6896C48.444 16.6896 48.2452 16.8884 48.2452 17.1337L48.2452 17.6664L47.7123 17.6664C47.4671 17.6664 47.2682 17.8653 47.2682 18.1106C47.2682 18.3558 47.4671 18.5547 47.7123 18.5547L48.2452 18.5547L48.2452 19.0879C48.2452 19.3332 48.444 19.532 48.6893 19.532C48.9346 19.532 49.1334 19.3332 49.1334 19.0879L49.1334 18.5547L49.6665 18.5547C49.9118 18.5547 50.1106 18.3558 50.1106 18.1106Z" fill="var(--fill-0, #2398FF)"/>
<path id="Union_2" fill-rule="evenodd" clip-rule="evenodd" d="M2.03634 22.5247C1.75933 22.5188 1.52995 22.7385 1.524 23.0155L1.51108 23.6176L0.90945 23.6047C0.632438 23.5987 0.403055 23.8184 0.397108 24.0955C0.391161 24.3725 0.610902 24.6019 0.887913 24.6078L1.48954 24.6207L1.47662 25.2224C1.47068 25.4995 1.69042 25.7288 1.96743 25.7348C2.24444 25.7407 2.47382 25.521 2.47977 25.244L2.49269 24.6423L3.09484 24.6552C3.37185 24.6611 3.60123 24.4414 3.60718 24.1644C3.61312 23.8874 3.39338 23.658 3.11637 23.652L2.51422 23.6391L2.52715 23.0371C2.5331 22.76 2.31335 22.5307 2.03634 22.5247Z" fill="var(--fill-0, #2398FF)"/>
</g>
</svg>
