<svg preserveAspectRatio="none" width="100%" height="100%" overflow="visible" style="display: block;" viewBox="0 0 21.0521 21.0387" fill="none" xmlns="http://www.w3.org/2000/svg">
<g id="icon">
<path d="M5.59631 0.00437688C6.00814 -0.0399855 6.37796 0.257907 6.42232 0.669738C6.46668 1.08157 6.16879 1.45139 5.75696 1.49575C5.20074 1.55566 4.64895 1.61964 4.09875 1.68343L3.98527 1.69658C2.78302 1.83593 1.82287 2.79709 1.6882 3.99667C1.62269 4.58015 1.55705 5.16582 1.49609 5.75622C1.45355 6.16824 1.08505 6.46776 0.67303 6.42522C0.261007 6.38268 -0.0385168 6.01418 0.00402514 5.60216C0.0657732 5.00412 0.13214 4.41202 0.19756 3.82931C0.410496 1.93266 1.91987 0.425924 3.81258 0.206559L3.9272 0.193271C4.47617 0.129622 5.03376 0.064975 5.59631 0.00437688Z" fill="var(--fill-0, #0033C9)"/>
<path d="M15.4558 0.00437688C15.044 -0.0399855 14.6742 0.257907 14.6298 0.669738C14.5854 1.08157 14.8833 1.45139 15.2952 1.49575C15.8514 1.55567 16.4032 1.61965 16.9535 1.68344L17.0669 1.69658C18.2691 1.83593 19.2293 2.79709 19.3639 3.99667C19.4294 4.58015 19.4951 5.16582 19.556 5.75622C19.5986 6.16824 19.9671 6.46776 20.3791 6.42522C20.7911 6.38268 21.0906 6.01418 21.0481 5.60216C20.9864 5.00412 20.92 4.41202 20.8546 3.82931C20.6416 1.93266 19.1322 0.425924 17.2395 0.206559L17.1249 0.193271C16.576 0.129631 16.0183 0.0649662 15.4558 0.00437688Z" fill="var(--fill-0, #0033C9)"/>
<path fill-rule="evenodd" clip-rule="evenodd" d="M7.45812 3.73834C6.94419 3.73834 6.44712 3.78039 5.98115 3.83012C4.85571 3.95021 3.95034 4.85426 3.83505 5.9834C3.78774 6.44679 3.74847 6.93925 3.74847 7.44799C3.74847 7.95672 3.78774 8.44918 3.83505 8.91257C3.95034 10.0417 4.85571 10.9458 5.98115 11.0659C6.44712 11.1156 6.94419 11.1576 7.45812 11.1576C7.97205 11.1576 8.46911 11.1156 8.93508 11.0659C10.0605 10.9458 10.9659 10.0417 11.0812 8.91257C11.1285 8.44918 11.1678 7.95672 11.1678 7.44799C11.1678 6.93925 11.1285 6.44679 11.0812 5.9834C10.9659 4.85426 10.0605 3.95021 8.93509 3.83012C8.46911 3.78039 7.97205 3.73834 7.45812 3.73834ZM6.14032 5.32165C6.58639 5.27405 7.02253 5.23834 7.45812 5.23834C7.89371 5.23834 8.32985 5.27405 8.77592 5.32165C9.19952 5.36685 9.546 5.71514 9.58895 6.13577C9.63416 6.57864 9.66776 7.01338 9.66776 7.44799C9.66776 7.88259 9.63416 8.31733 9.58895 8.7602C9.546 9.18084 9.19952 9.52912 8.77592 9.57433C8.32985 9.62193 7.89371 9.65763 7.45812 9.65763C7.02253 9.65763 6.58639 9.62193 6.14032 9.57433C5.71671 9.52912 5.37024 9.18084 5.32729 8.7602C5.28207 8.31733 5.24847 7.88259 5.24847 7.44799C5.24847 7.01338 5.28207 6.57864 5.32729 6.13577C5.37024 5.71514 5.71671 5.36685 6.14032 5.32165Z" fill="var(--fill-0, #0033C9)"/>
<path d="M14.6298 20.369C14.6742 20.7808 15.044 21.0787 15.4558 21.0343C16.0176 20.9738 16.5744 20.9093 17.1226 20.8457L17.2395 20.8321C19.1322 20.6128 20.6416 19.106 20.8546 17.2094C20.92 16.6267 20.9864 16.0346 21.0481 15.4365C21.0906 15.0245 20.7911 14.656 20.3791 14.6135C19.9671 14.5709 19.5986 14.8705 19.556 15.2825C19.4951 15.8729 19.4294 16.4585 19.3639 17.042C19.2293 18.2416 18.2691 19.2028 17.0669 19.3421L16.9535 19.3553L16.9523 19.3554C16.4026 19.4191 15.8508 19.4831 15.2952 19.5429C14.8833 19.5873 14.5854 19.9571 14.6298 20.369Z" fill="var(--fill-0, #0033C9)"/>
<path d="M6.42232 20.369C6.37796 20.7808 6.00814 21.0787 5.59631 21.0343C5.03448 20.9738 4.47764 20.9092 3.92935 20.8457L3.92783 20.8455L3.81258 20.8321C1.91987 20.6128 0.410496 19.106 0.19756 17.2094C0.13214 16.6267 0.0657732 16.0346 0.00402514 15.4365C-0.0385168 15.0245 0.261007 14.656 0.67303 14.6135C1.08505 14.5709 1.45355 14.8705 1.49609 15.2825C1.55705 15.8729 1.62269 16.4585 1.6882 17.042C1.82287 18.2416 2.78302 19.2028 3.98527 19.3421L4.09865 19.3553C4.64868 19.419 5.20091 19.483 5.75696 19.5429C6.16879 19.5873 6.46668 19.9571 6.42232 20.369Z" fill="var(--fill-0, #0033C9)"/>
<path d="M5.78851 14.0889C5.78851 13.6747 5.45273 13.3389 5.03851 13.3389C4.6243 13.3389 4.28851 13.6747 4.28851 14.0889L4.28851 16.5535C4.28851 16.9677 4.6243 17.3035 5.03851 17.3035H7.45773C7.87194 17.3035 8.20773 16.9677 8.20773 16.5535C8.20773 16.1393 7.87195 15.8035 7.45773 15.8035H5.78851V14.0889Z" fill="var(--fill-0, #0033C9)"/>
<path d="M16.4877 17.3038C16.0735 17.3038 15.7377 16.968 15.7377 16.5538V14.8392H14.0685C13.6543 14.8392 13.3185 14.5034 13.3185 14.0892C13.3185 13.675 13.6543 13.3392 14.0685 13.3392H16.4877C16.9019 13.3392 17.2377 13.675 17.2377 14.0892V16.5538C17.2377 16.968 16.9019 17.3038 16.4877 17.3038Z" fill="var(--fill-0, #0033C9)"/>
<path d="M16.5317 11.233C16.9459 11.233 17.2817 10.8972 17.2817 10.483C17.2817 10.0688 16.9459 9.73297 16.5317 9.73297H14.1125C13.6982 9.73297 13.3625 10.0688 13.3625 10.483C13.3625 10.8972 13.6982 11.233 14.1125 11.233H16.5317Z" fill="var(--fill-0, #0033C9)"/>
<path d="M10.4179 17.2808C10.0037 17.2808 9.66791 16.945 9.66791 16.5308V14.1116C9.66791 13.6974 10.0037 13.3616 10.4179 13.3616C10.8321 13.3616 11.1679 13.6974 11.1679 14.1116V16.5308C11.1679 16.945 10.8321 17.2808 10.4179 17.2808Z" fill="var(--fill-0, #0033C9)"/>
<path d="M15.7377 7.4483C15.7377 7.86252 16.0735 8.1983 16.4877 8.1983C16.9019 8.1983 17.2377 7.86252 17.2377 7.4483V4.98375C17.2377 4.56954 16.9019 4.23375 16.4877 4.23375H14.0685C13.6543 4.23375 13.3185 4.56954 13.3185 4.98375C13.3185 5.39797 13.6543 5.73375 14.0685 5.73375H15.7377V7.4483Z" fill="var(--fill-0, #0033C9)"/>
</g>
</svg>
