<svg preserveAspectRatio="none" width="100%" height="100%" overflow="visible" style="display: block;" viewBox="0 0 43.9051 27.1355" fill="none" xmlns="http://www.w3.org/2000/svg">
<g id="Pattern">
<path id="Ellipse 586 (Stroke)" fill-rule="evenodd" clip-rule="evenodd" d="M2.32994 17.2799C3.16257 17.2799 3.83755 16.605 3.83755 15.7723C3.83755 14.9397 3.16257 14.2647 2.32994 14.2647C1.49731 14.2647 0.822331 14.9397 0.822331 15.7723C0.822331 16.605 1.49731 17.2799 2.32994 17.2799ZM2.32994 18.1023C3.61673 18.1023 4.65988 17.0591 4.65988 15.7723C4.65988 14.4855 3.61673 13.4424 2.32994 13.4424C1.04315 13.4424 0 14.4855 0 15.7723C0 17.0591 1.04315 18.1023 2.32994 18.1023Z" fill="var(--fill-0, #2398FF)"/>
<path id="Union" fill-rule="evenodd" clip-rule="evenodd" d="M43.5638 25.3725C43.5638 25.1273 43.3649 24.9284 43.1196 24.9284L42.5865 24.9284L42.5865 24.3957C42.5865 24.1504 42.3877 23.9516 42.1424 23.9516C41.8971 23.9516 41.6983 24.1504 41.6983 24.3957L41.6983 24.9284L41.1655 24.9284C40.9202 24.9284 40.7214 25.1273 40.7214 25.3725C40.7214 25.6178 40.9202 25.8167 41.1655 25.8167L41.6983 25.8167L41.6983 26.3498C41.6983 26.5951 41.8971 26.794 42.1424 26.794C42.3877 26.794 42.5865 26.5951 42.5865 26.3498L42.5865 25.8167L43.1196 25.8167C43.3649 25.8167 43.5638 25.6178 43.5638 25.3725Z" fill="var(--fill-0, #2398FF)"/>
<path id="Union_2" fill-rule="evenodd" clip-rule="evenodd" d="M3.77643 0.396883C3.49942 0.390936 3.27003 0.610677 3.26409 0.887688L3.25116 1.48973L2.64953 1.47682C2.37252 1.47087 2.14314 1.69061 2.13719 1.96762C2.13125 2.24463 2.35099 2.47402 2.628 2.47996L3.22963 2.49288L3.21671 3.09461C3.21076 3.37162 3.4305 3.60101 3.70751 3.60695C3.98452 3.6129 4.21391 3.39316 4.21985 3.11615L4.23277 2.51442L4.83492 2.52734C5.11193 2.53329 5.34131 2.31355 5.34726 2.03654C5.35321 1.75953 5.13347 1.53014 4.85646 1.5242L4.25431 1.51127L4.26723 0.909225C4.27318 0.632213 4.05344 0.40283 3.77643 0.396883Z" fill="var(--fill-0, #2398FF)"/>
</g>
</svg>
