<svg preserveAspectRatio="none" width="100%" height="100%" overflow="visible" style="display: block;" viewBox="0 0 13.6488 13.9142" fill="none" xmlns="http://www.w3.org/2000/svg">
<g id="Pattern">
<path id="Vector 1652 (Stroke)" fill-rule="evenodd" clip-rule="evenodd" d="M0.8426 10.0231C0.901007 9.43864 1.10832 8.62985 1.69275 8.68825L6.05772 9.9816C6.54266 10.1433 6.8826 10.2469 6.8242 10.8314C6.78505 11.2231 6.381 11.4167 5.89605 11.4167L1.69276 11.7599C0.842638 11.7599 0.784193 10.6075 0.8426 10.0231Z" fill="var(--fill-0, #00CF6A)"/>
<path id="Vector 1652 (Stroke)_2" fill-rule="evenodd" clip-rule="evenodd" d="M10.9055 0.684782C11.4912 0.641186 12.3237 0.705435 12.3673 1.29116L11.8487 5.81407C11.7734 6.31967 11.7301 6.67242 11.1443 6.71602C10.7517 6.74524 10.4912 6.38077 10.4073 5.90315L9.34194 1.82264C9.19487 0.985334 10.3198 0.728377 10.9055 0.684782Z" fill="var(--fill-0, #00CF6A)"/>
<path id="Vector 1653 (Stroke)" fill-rule="evenodd" clip-rule="evenodd" d="M2.92306 2.74081C3.3245 2.31207 4.61729 1.21487 5.04603 1.61632L9.19617 7.1577C9.41094 7.4363 9.48905 7.97756 9.0876 8.40629C8.68616 8.83503 8.11761 9.05296 7.74242 8.71028L2.29765 4.68797C1.86892 4.28653 2.52162 3.16954 2.92306 2.74081Z" fill="var(--fill-0, #00CF6A)"/>
</g>
</svg>
