<svg preserveAspectRatio="none" width="100%" height="100%" overflow="visible" style="display: block;" viewBox="0 0 4.52278 7.11672" fill="none" xmlns="http://www.w3.org/2000/svg">
<path id="Rectangle 2649 (Stroke)" fill-rule="evenodd" clip-rule="evenodd" d="M0 2.26139C0 1.01246 1.01246 0 2.26139 0C2.55525 0 2.79348 0.238225 2.79348 0.532091C2.79348 0.825957 2.55525 1.06418 2.26139 1.06418C1.60019 1.06418 1.06418 1.60019 1.06418 2.26139V4.85533C1.06418 5.51653 1.60019 6.05254 2.26139 6.05254C2.92259 6.05254 3.45859 5.51653 3.45859 4.85533V3.55836C3.45859 3.2645 3.69682 3.02627 3.99069 3.02627C4.28455 3.02627 4.52278 3.2645 4.52278 3.55836V4.85533C4.52278 6.10427 3.51032 7.11672 2.26139 7.11672C1.01246 7.11672 0 6.10427 0 4.85533V2.26139Z" fill="var(--fill-0, white)"/>
</svg>
