<svg preserveAspectRatio="none" width="100%" height="100%" overflow="visible" style="display: block;" viewBox="0 0 16.2288 16.2288" fill="none" xmlns="http://www.w3.org/2000/svg">
<path id="Union" d="M14.4867 13.1386C15.5777 11.7568 16.2288 10.0116 16.2288 8.1144C16.2288 3.63294 12.5959 0 8.1144 0C3.63294 0 0 3.63294 0 8.1144C0 12.5959 3.63294 16.2288 8.1144 16.2288C9.65244 16.2288 11.0905 15.8009 12.3161 15.0576C13.3538 15.6598 14.9544 15.5702 15.3301 15.5393C15.3596 15.5368 15.389 15.5384 15.4184 15.5401C15.443 15.5414 15.4676 15.5428 15.4923 15.5418C15.6005 15.5374 15.6928 15.4628 15.7238 15.3628C15.7515 15.2736 15.6851 15.1911 15.6144 15.1301C15.3319 14.8863 14.6005 14.1639 14.4867 13.1386Z" fill="var(--fill-0, #FFC226)"/>
</svg>
