<svg preserveAspectRatio="none" width="100%" height="100%" overflow="visible" style="display: block;" viewBox="0 0 20.9281 17.5009" fill="none" xmlns="http://www.w3.org/2000/svg">
<path id="icon" fill-rule="evenodd" clip-rule="evenodd" d="M12.2484 1.00201C12.2484 0.110775 13.3262 -0.335248 13.956 0.295381C14.8998 1.24043 18.2588 4.71318 20.1566 6.67782C21.1866 7.74409 21.1851 9.4304 20.1532 10.4948C18.267 12.4407 14.9407 15.8679 13.956 16.8539C13.3262 17.4845 12.2484 17.0385 12.2484 16.1473V12.9226C9.21504 12.602 7.1061 13.065 5.53488 13.8162C3.83846 14.6273 2.70314 15.8016 1.65123 16.8969C1.52951 17.0237 1.40763 17.1506 1.28747 17.274C1.07089 17.4965 0.739577 17.5626 0.454224 17.4401C0.168871 17.3177 -0.0115085 17.032 0.000571383 16.7217C0.221058 11.0583 2.35939 7.63568 5.0824 5.71624C7.4409 4.05374 10.1575 3.57575 12.2484 3.6501V1.00201ZM13.7484 2.22286V4.45681C13.7484 4.67049 13.6573 4.87403 13.4979 5.01632C13.3385 5.15862 13.1259 5.22616 12.9136 5.202C11.0238 4.98691 8.26438 5.30848 5.94662 6.94226C3.97783 8.33005 2.2486 10.7203 1.67931 14.7378C2.52808 13.9304 3.55529 13.1001 4.88784 12.4629C6.87376 11.5134 9.47298 11.0195 13.1 11.5151C13.4715 11.5659 13.7484 11.8832 13.7484 12.2582V14.9282C15.1593 13.4888 17.5696 11.0051 19.0762 9.45082C19.5448 8.96741 19.5455 8.20418 19.0777 7.71996C17.5674 6.15647 15.1492 3.65599 13.7484 2.22286Z" fill="var(--fill-0, white)"/>
</svg>
