<svg preserveAspectRatio="none" width="100%" height="100%" overflow="visible" style="display: block;" viewBox="0 0 16.7371 17.5996" fill="none" xmlns="http://www.w3.org/2000/svg">
<g id="highlight-line">
<path id="Vector" d="M7.1356 2.86821C6.92354 2.79369 6.70135 2.90185 6.63932 3.10978C6.57729 3.31771 6.69892 3.54668 6.91098 3.6212L7.02329 3.24471L7.1356 2.86821ZM6.8889 0.0393901C6.68433 -0.0560917 6.45082 0.0279715 6.36734 0.22715C6.28386 0.426329 6.38202 0.665199 6.58658 0.760681L6.73774 0.400036L6.8889 0.0393901ZM7.02329 3.24471L6.91098 3.6212C7.05338 3.67124 7.18542 3.63868 7.27475 3.5789C7.34859 3.52949 7.38779 3.46686 7.4053 3.43553C7.44183 3.37015 7.45966 3.30029 7.46931 3.25677C7.49101 3.15899 7.50431 3.034 7.51265 2.90393C7.52975 2.63749 7.52992 2.28334 7.51053 1.92474C7.49123 1.5678 7.45167 1.1891 7.38421 0.878013C7.35082 0.724005 7.30702 0.569409 7.24689 0.437074C7.19595 0.324943 7.09221 0.134287 6.8889 0.0393901L6.73774 0.400036L6.58658 0.760681C6.49405 0.717489 6.48768 0.656393 6.52165 0.731171C6.54644 0.785742 6.5751 0.875403 6.60266 1.00249C6.65711 1.25359 6.69342 1.58444 6.71158 1.92036C6.72966 2.25462 6.72885 2.57663 6.71416 2.80559C6.70661 2.92322 6.69631 3.00075 6.68765 3.03979C6.68213 3.06468 6.68309 3.0468 6.70118 3.01442C6.70947 2.99958 6.73905 2.94871 6.80291 2.90598C6.88225 2.85289 7.00393 2.82194 7.1356 2.86821L7.02329 3.24471Z" fill="var(--stroke-0, #00CF6A)"/>
<path id="Vector_2" d="M12.6982 2.57129C12.4773 2.56793 12.3016 2.74426 12.3057 2.96514C12.3099 3.18602 12.4923 3.36779 12.7132 3.37115L12.7057 2.97122L12.6982 2.57129ZM12.8107 2.88654L12.9916 3.24918L12.9995 3.24544L13.0072 3.24136L12.8107 2.88654ZM10.0182 4.87249C9.95105 5.08055 10.0673 5.30938 10.2777 5.38359C10.4882 5.4578 10.7133 5.34929 10.7804 5.14123L10.3993 5.00686L10.0182 4.87249ZM12.7057 2.97122L12.7132 3.37115C12.8264 3.37287 12.9153 3.3349 12.9697 3.30395C13.0263 3.27177 13.0722 3.23234 13.1064 3.1951C13.1239 3.17619 13.143 3.15278 13.1606 3.12521C13.1718 3.10783 13.2086 3.04984 13.2224 2.96701C13.2291 2.92712 13.2404 2.82469 13.182 2.71104C13.1098 2.57033 12.9803 2.50391 12.8737 2.48713C12.7866 2.47343 12.7187 2.49144 12.6909 2.49988C12.6572 2.51015 12.6307 2.52294 12.6141 2.53172L12.8107 2.88654L13.0072 3.24136C12.9973 3.24664 12.9764 3.25705 12.9473 3.26591C12.9241 3.27294 12.8599 3.29053 12.7756 3.27727C12.6717 3.26093 12.5441 3.1958 12.4729 3.05711C12.4155 2.94549 12.4271 2.84581 12.4332 2.80928C12.4459 2.73318 12.4785 2.68434 12.4828 2.67753C12.4937 2.66052 12.5035 2.64911 12.5095 2.6426C12.5209 2.63018 12.5356 2.61723 12.5568 2.60519C12.5758 2.59437 12.625 2.57018 12.6982 2.57129L12.7057 2.97122ZM12.8107 2.88654L12.6297 2.5239C12.2218 2.71688 11.6627 3.0477 11.1656 3.44481C10.6834 3.83002 10.1936 4.32887 10.0182 4.87249L10.3993 5.00686L10.7804 5.14123C10.882 4.82627 11.215 4.44608 11.6778 4.07634C12.1257 3.71848 12.6338 3.41843 12.9916 3.24918L12.8107 2.88654Z" fill="var(--stroke-0, #00CF6A)"/>
<path id="Vector_3" d="M15.9405 6.37127C15.7197 6.37207 15.5477 6.5518 15.5562 6.77269C15.5647 6.99359 15.7506 7.17202 15.9713 7.17122L15.9559 6.77124L15.9405 6.37127ZM13.483 8.17284C13.4158 8.38081 13.532 8.60977 13.7425 8.68423C13.9529 8.75869 14.178 8.65046 14.2452 8.44249L13.8641 8.30766L13.483 8.17284ZM15.9559 6.77124L15.9713 7.17122C16.0565 7.17091 16.1127 7.17429 16.1468 7.1785C16.1918 7.18405 16.1676 7.18744 16.121 7.16165C16.0937 7.14659 16.0366 7.1093 15.9915 7.03522C15.9409 6.95195 15.9287 6.86025 15.9422 6.78247C15.9539 6.71503 15.9819 6.67188 15.9934 6.65577C16.0003 6.64612 16.0061 6.63955 16.0094 6.63603C16.0111 6.63416 16.0124 6.63281 16.0133 6.63198C16.0142 6.63114 16.0146 6.6307 16.0147 6.63066C16.0147 6.63064 16.0134 6.63178 16.0106 6.63405C16.0077 6.6363 16.0037 6.63933 15.9984 6.64312C15.9876 6.65082 15.9732 6.66042 15.9545 6.67195C15.9167 6.69522 15.8678 6.72251 15.8075 6.75384C15.6866 6.81668 15.5349 6.888 15.3631 6.96686C15.0273 7.12098 14.615 7.30324 14.2807 7.48005C14.1133 7.56856 13.9514 7.66285 13.8211 7.75946C13.7558 7.80788 13.6905 7.86263 13.6345 7.92366C13.581 7.98187 13.5178 8.06508 13.483 8.17284L13.8641 8.30766L14.2452 8.44249C14.2325 8.48158 14.2168 8.49265 14.2322 8.47597C14.2449 8.46211 14.2698 8.43922 14.312 8.40793C14.3967 8.34513 14.5192 8.27179 14.6738 8.19009C14.9832 8.02647 15.3647 7.85793 15.7176 7.69594C15.8902 7.61674 16.0567 7.53866 16.1957 7.46642C16.3245 7.39952 16.4659 7.31965 16.5621 7.23285C16.5983 7.20016 16.7034 7.10287 16.7307 6.9454C16.7476 6.84773 16.7322 6.73756 16.6713 6.63735C16.6159 6.54631 16.5414 6.49358 16.4891 6.46468C16.3923 6.41119 16.2876 6.39329 16.2175 6.38463C16.1366 6.37464 16.0433 6.3709 15.9405 6.37127L15.9559 6.77124Z" fill="var(--stroke-0, #00CF6A)"/>
<path id="Vector_4" d="M10.7096 17.3414C10.7949 17.5479 11.0293 17.6518 11.233 17.5735C11.4368 17.4951 11.5328 17.2642 11.4475 17.0576L11.0785 17.1995L10.7096 17.3414ZM10.7395 13.2462L10.3522 13.1333L10.7395 13.2462ZM11.5024 11.5413L11.1143 11.6256L11.1177 11.6377L11.5024 11.5413ZM11.2109 11.5368L11.2034 11.1369L11.1957 11.1368L11.188 11.1369L11.2109 11.5368ZM8.92629 11.2159L8.67787 11.521L8.68671 11.5279L8.92629 11.2159ZM7.93789 9.36985L7.54358 9.42486L7.54599 9.43669L7.93789 9.36985ZM7.86506 8.31019L7.85757 7.91026L7.84558 7.91007L7.83363 7.91061L7.86506 8.31019ZM6.42189 9.06066L6.3715 8.66238L6.36868 8.66266L6.42189 9.06066ZM4.31308 5.39512L3.91663 5.43505L3.91691 5.43703L4.31308 5.39512ZM4.08637 6.02108L4.45246 6.19464L4.45696 6.18458L4.46089 6.17427L4.08637 6.02108ZM3.41497 6.95496L3.68329 7.26056L3.6854 7.2587L3.41497 6.95496ZM0.52854 6.87811C0.319305 6.80014 0.0921959 6.90448 0.0212783 7.11116C-0.0496392 7.31784 0.0624896 7.5486 0.271725 7.62657L0.400133 7.25234L0.52854 6.87811ZM11.0785 17.1995L11.4475 17.0576C10.894 15.7178 10.7806 14.6899 11.1269 13.3591L10.7395 13.2462L10.3522 13.1333C9.95695 14.6521 10.0974 15.8597 10.7096 17.3414L11.0785 17.1995ZM10.7395 13.2462L11.1269 13.3591C11.1263 13.3612 11.1279 13.3549 11.1347 13.3374C11.141 13.321 11.1499 13.2998 11.1618 13.2733C11.1857 13.2201 11.2177 13.1543 11.2564 13.0775C11.3352 12.9213 11.4292 12.7444 11.5269 12.5551C11.6213 12.3722 11.7171 12.1813 11.7861 12.0205C11.8202 11.9409 11.8524 11.8583 11.8741 11.7819C11.8849 11.7437 11.8957 11.6985 11.9013 11.6504C11.9063 11.6083 11.9116 11.5315 11.8872 11.4448L11.5024 11.5413L11.1177 11.6377C11.1003 11.5761 11.1065 11.5324 11.1067 11.5304C11.1077 11.5225 11.1082 11.5243 11.1039 11.5393C11.0954 11.5691 11.078 11.6169 11.0491 11.6843C10.992 11.8175 10.9074 11.9869 10.8132 12.1695C10.7224 12.3456 10.6196 12.5394 10.5396 12.6982C10.4661 12.8438 10.3833 13.0135 10.3522 13.1333L10.7395 13.2462ZM11.5024 11.5413L11.8904 11.457C11.8744 11.3929 11.842 11.3149 11.7774 11.2441C11.7105 11.1708 11.6301 11.1282 11.5547 11.1072C11.427 11.0717 11.3144 11.0992 11.2799 11.1074C11.2546 11.1135 11.2311 11.1205 11.2153 11.1252C11.196 11.131 11.1873 11.1337 11.1765 11.1368C11.1506 11.1441 11.168 11.1363 11.2034 11.1369L11.2109 11.5368L11.2184 11.9367C11.3068 11.9381 11.3836 11.9169 11.4178 11.9073C11.437 11.9018 11.4586 11.8952 11.4691 11.892C11.483 11.8879 11.4888 11.8863 11.4914 11.8857C11.4946 11.8849 11.4854 11.8874 11.4687 11.8887C11.4529 11.8898 11.4144 11.8912 11.3647 11.8774C11.3097 11.8621 11.2471 11.8296 11.1947 11.7722C11.1446 11.7173 11.1233 11.6608 11.1145 11.6255L11.5024 11.5413ZM11.2109 11.5368L11.188 11.1369C10.9929 11.1415 10.7851 11.1574 10.5982 11.1686C10.4046 11.1802 10.2219 11.1877 10.046 11.1802C9.6957 11.1653 9.40692 11.0923 9.16587 10.9039L8.92629 11.2159L8.68671 11.5279C9.11789 11.8648 9.60063 11.9608 10.0392 11.9794C10.2577 11.9887 10.4738 11.979 10.673 11.9671C10.879 11.9548 11.0581 11.9408 11.2338 11.9367L11.2109 11.5368ZM8.92629 11.2159L9.17462 10.9109C8.7141 10.5309 8.46656 9.97549 8.32979 9.30301L7.93789 9.36985L7.54599 9.43669C7.70105 10.1991 8.00822 10.9682 8.67797 11.5209L8.92629 11.2159ZM7.93789 9.36985L8.33202 9.31487C8.32916 9.29831 8.32853 9.24529 8.34551 9.13234C8.35321 9.08115 8.36278 9.02765 8.37345 8.96784C8.38372 8.91031 8.39514 8.84625 8.40426 8.78376C8.41998 8.67606 8.44131 8.50359 8.40113 8.34425C8.37863 8.25504 8.32915 8.13758 8.21896 8.04316C8.10465 7.94521 7.9719 7.912 7.85757 7.91026L7.86506 8.31019L7.87255 8.71012C7.84436 8.70969 7.77662 8.69982 7.71038 8.64306C7.64826 8.58982 7.6299 8.5314 7.62574 8.51489C7.62222 8.50094 7.62908 8.52851 7.61251 8.64205C7.60549 8.69017 7.59631 8.74203 7.58569 8.80152C7.57547 8.85874 7.56386 8.92338 7.55426 8.98726C7.53664 9.10445 7.5169 9.26928 7.54376 9.42483L7.93789 9.36985ZM7.86506 8.31019L7.83363 7.91061C7.62469 7.91997 7.44494 7.99974 7.30339 8.0819C7.16249 8.1637 7.02671 8.26807 6.91421 8.35363C6.79334 8.44556 6.69313 8.52075 6.59468 8.57764C6.49748 8.6338 6.42617 8.6573 6.3715 8.66239L6.42189 9.06066L6.47228 9.45893C6.6821 9.43943 6.86387 9.35951 7.0124 9.27368C7.15969 9.18858 7.29786 9.08323 7.4121 8.99635C7.5347 8.90311 7.63075 8.83041 7.72245 8.77718C7.81352 8.72431 7.86717 8.71108 7.89649 8.70976L7.86506 8.31019ZM6.42189 9.06066L6.36868 8.66266C5.96444 8.70315 5.71049 8.60346 5.53206 8.4541C5.33992 8.29327 5.18817 8.03503 5.07204 7.68331C4.95676 7.33412 4.88863 6.93037 4.83821 6.51709C4.79159 6.13491 4.75403 5.67475 4.70925 5.35321L4.31308 5.39512L3.91691 5.43703C3.96397 5.77491 3.988 6.12748 4.04409 6.58727C4.09639 7.01595 4.17209 7.48341 4.31313 7.91059C4.45332 8.33523 4.67037 8.7585 5.03088 9.06027C5.40509 9.37351 5.88764 9.5175 6.4751 9.45866L6.42189 9.06066ZM4.31308 5.39512L4.70952 5.35519C4.70618 5.33031 4.69975 5.29039 4.68524 5.24701C4.67792 5.22513 4.66452 5.18997 4.6406 5.15122C4.61806 5.11472 4.57071 5.04979 4.48586 5.00168C4.38828 4.94636 4.27766 4.93422 4.17852 4.96033C4.09285 4.9829 4.03684 5.02804 4.00924 5.05376C3.9564 5.10299 3.92819 5.15664 3.9188 5.17476C3.87908 5.25141 3.84863 5.36268 3.83019 5.43087C3.77749 5.62567 3.74077 5.79191 3.71186 5.86789L4.08637 6.02108L4.46089 6.17427C4.50773 6.05113 4.56897 5.78972 4.60299 5.66398C4.6279 5.57191 4.63799 5.54969 4.63183 5.56158C4.63083 5.56351 4.61058 5.60527 4.56519 5.64756C4.54131 5.6698 4.4889 5.71271 4.4067 5.73437C4.31102 5.75957 4.20373 5.74783 4.10934 5.69432C4.02768 5.64802 3.98338 5.5863 3.96374 5.55449C3.94272 5.52044 3.93206 5.49146 3.92734 5.47732C3.92207 5.46158 3.91942 5.44974 3.9183 5.4443C3.91765 5.4412 3.91724 5.43886 3.917 5.43743C3.91676 5.43598 3.91665 5.43516 3.91664 5.43505L4.31308 5.39512ZM4.08637 6.02108L3.72029 5.84751C3.58632 6.1469 3.38422 6.43961 3.14454 6.65122L3.41497 6.95496L3.6854 7.2587C4.01913 6.96407 4.28126 6.57724 4.45246 6.19464L4.08637 6.02108ZM3.41497 6.95496L3.14666 6.64936C2.49237 7.21844 1.42332 7.21156 0.52854 6.87811L0.400133 7.25234L0.271725 7.62657C1.298 8.00902 2.72122 8.09732 3.68329 7.26056L3.41497 6.95496Z" fill="var(--stroke-0, #00CF6A)"/>
</g>
</svg>
