<svg preserveAspectRatio="none" width="100%" height="100%" overflow="visible" style="display: block;" viewBox="0 0 42.1546 50.3611" fill="none" xmlns="http://www.w3.org/2000/svg">
<g id="Pattern">
<path id="Subtract" opacity="0.21" d="M23.693 8.8314L23.4212 9.41437L22.9238 9.00778C21.7504 8.05084 20.6708 6.98049 19.696 5.80727L19.0722 5.05452L12.167 8.74853L17.7978 29.7469L18.065 30.743L17.1176 30.3367C16.4932 30.0688 15.8505 29.8165 15.2079 29.588L15.2091 29.5872C11.7333 28.3574 8.11833 27.7463 4.46637 27.7642L4.46622 27.7652L3.26984 27.7724L3.31849 36.1922L4.51389 36.1847C6.36805 36.1728 8.20013 36.3813 9.98635 36.8027L10.5839 36.9443L10.3252 37.5007L7.81011 42.8977L16.0362 46.7324L18.4615 41.5289L18.7331 40.9469L19.2306 41.3535C20.4039 42.3104 21.4838 43.3798 22.4585 44.553L22.4584 44.554L23.0833 45.3059L29.9885 41.6119L24.3567 20.6134L24.0894 19.6183L25.0367 20.0246C25.5052 20.2256 25.9838 20.4178 26.465 20.5976L26.9456 20.7721C30.4217 22.0021 34.0368 22.6143 37.6891 22.5962L37.6882 22.5961L38.8866 22.5882L38.837 14.1683L37.6405 14.1765C35.7863 14.1884 33.9543 13.98 32.168 13.5585L31.5705 13.4169L31.8301 12.8607L34.3454 7.46277L26.1193 3.62802L23.693 8.8314ZM26.9079 4.76559L32.9616 7.58681L33.4155 7.79872L33.2038 8.25175L30.5903 13.8527C32.8476 14.533 35.2172 14.885 37.6415 14.8727L38.1411 14.8703L38.1436 15.369L38.1819 21.3887L38.185 21.8894L37.6854 21.8918C34.1239 21.9118 30.5436 21.3004 27.1785 20.1099L27.1777 20.1088C26.2552 19.7805 25.3508 19.4114 24.4683 19.0018L24.4673 19.0016C23.9739 18.7719 23.4879 18.5263 23.0069 18.2693L29.0661 40.8715L29.1689 41.2544L28.8191 41.4415L23.6165 44.2244L23.256 44.4167L22.9962 44.1019C21.6552 42.4837 20.1268 41.0746 18.4583 39.8863L15.912 45.3496L15.7012 45.8028L15.2471 45.5918L9.19343 42.7706L8.74039 42.5588L8.95118 42.1057L11.5658 36.5039C9.30834 35.8235 6.93798 35.4724 4.51345 35.4847L4.01384 35.4871L4.01148 34.9875L3.97756 28.9655L3.9744 28.4647L4.47498 28.4625C8.03635 28.4426 11.6159 29.0547 14.9808 30.2452L14.9828 30.2455C15.6682 30.4906 16.3505 30.7601 17.0214 31.0541L17.6886 31.356C18.1823 31.5858 18.6688 31.8312 19.15 32.0884L13.0889 9.48595L12.9861 9.10298L13.3359 8.91588L18.5384 6.13304L18.8989 5.94071L19.1597 6.25564C20.5007 7.8738 22.0293 9.28209 23.6978 10.4703L26.243 5.00783L26.4547 4.55479L26.9079 4.76559Z" stroke="var(--stroke-0, #00BF85)" stroke-opacity="0.7"/>
</g>
</svg>
