<svg preserveAspectRatio="none" width="100%" height="100%" overflow="visible" style="display: block;" viewBox="0 0 16 16" fill="none" xmlns="http://www.w3.org/2000/svg">
<g id="close">
<path id="Union" fill-rule="evenodd" clip-rule="evenodd" d="M13.7489 2.25496C13.4142 1.91501 12.8715 1.91501 12.5368 2.25496L8 6.86245L3.46323 2.25496C3.1285 1.91501 2.58579 1.91501 2.25105 2.25496C1.91632 2.59492 1.91632 3.14609 2.25105 3.48604L6.78782 8.09353L2.43524 12.514C2.10051 12.8539 2.10051 13.4051 2.43524 13.745C2.76998 14.085 3.31269 14.085 3.64742 13.745L8 9.32461L12.3526 13.745C12.6873 14.085 13.23 14.085 13.5648 13.745C13.8995 13.4051 13.8995 12.8539 13.5648 12.514L9.21218 8.09353L13.7489 3.48604C14.0837 3.14609 14.0837 2.59492 13.7489 2.25496Z" fill="var(--fill-0, #001F3E)"/>
</g>
</svg>
