<svg preserveAspectRatio="none" width="100%" height="100%" overflow="visible" style="display: block;" viewBox="0 0 13.9521 11.6673" fill="none" xmlns="http://www.w3.org/2000/svg">
<path id="icon" fill-rule="evenodd" clip-rule="evenodd" d="M8.16562 0.668004C8.16562 0.0738498 8.88416 -0.223499 9.30401 0.19692C9.93318 0.826956 12.1725 3.14212 13.4377 4.45188C14.1244 5.16273 14.1234 6.28693 13.4355 6.99656C12.178 8.29379 9.96045 10.5786 9.30401 11.2359C8.88416 11.6563 8.16562 11.359 8.16562 10.7648V8.61507C6.14336 8.40131 4.7374 8.70997 3.68992 9.2108C2.55897 9.75154 1.80209 10.5344 1.10082 11.2646C1.01967 11.3491 0.938423 11.4337 0.85831 11.516C0.713925 11.6644 0.493052 11.7084 0.302816 11.6268C0.112581 11.5451 -0.0076723 11.3547 0.000380922 11.1478C0.147372 7.37218 1.57293 5.09045 3.38827 3.81082C4.9606 2.70249 6.77164 2.38383 8.16562 2.4334V0.668004ZM9.16562 1.4819V2.97121C9.16562 3.11366 9.10485 3.24935 8.99858 3.34422C8.8923 3.43908 8.75061 3.48411 8.60907 3.468C7.34922 3.32461 5.50959 3.53898 3.96441 4.62817C2.65189 5.55336 1.49907 7.14687 1.11954 9.82523C1.68539 9.2869 2.3702 8.73337 3.25856 8.30862C4.58251 7.67561 6.31532 7.34634 8.73331 7.67675C8.98099 7.7106 9.16562 7.92217 9.16562 8.17215V9.95214C10.1062 8.9925 11.713 7.33673 12.7175 6.30055C13.0299 5.97827 13.0303 5.46945 12.7185 5.14664C11.7116 4.10431 10.0995 2.43732 9.16562 1.4819Z" fill="var(--fill-0, #0033C9)"/>
</svg>
