<svg preserveAspectRatio="none" width="100%" height="100%" overflow="visible" style="display: block;" viewBox="0 0 19.5004 21.5" fill="none" xmlns="http://www.w3.org/2000/svg">
<path id="icon" fill-rule="evenodd" clip-rule="evenodd" d="M16.1504 0C15.1862 0 14.4004 0.785786 14.4004 1.75V16.75C14.4004 17.7142 15.1862 18.5 16.1504 18.5H17.7504C18.7146 18.5 19.5004 17.7142 19.5004 16.75V1.75C19.5004 0.785786 18.7146 0 17.7504 0H16.1504ZM15.9004 1.75C15.9004 1.61421 16.0146 1.5 16.1504 1.5H17.7504C17.8862 1.5 18.0004 1.61421 18.0004 1.75V16.75C18.0004 16.8858 17.8862 17 17.7504 17H16.1504C16.0146 17 15.9004 16.8858 15.9004 16.75V1.75ZM7.19922 4.94C7.19922 3.97579 7.98501 3.19 8.94922 3.19H10.5492C11.5134 3.19 12.2992 3.97579 12.2992 4.94V16.75C12.2992 17.7142 11.5134 18.5 10.5492 18.5H8.94922C7.98501 18.5 7.19922 17.7142 7.19922 16.75V4.94ZM8.94922 4.69C8.81343 4.69 8.69922 4.80422 8.69922 4.94V16.75C8.69922 16.8858 8.81343 17 8.94922 17H10.5492C10.685 17 10.7992 16.8858 10.7992 16.75V4.94C10.7992 4.80422 10.685 4.69 10.5492 4.69H8.94922ZM1.75 6.38C0.785786 6.38 0 7.16579 0 8.13V16.75C0 17.7142 0.785786 18.5 1.75 18.5H3.34998C4.31419 18.5 5.09998 17.7142 5.09998 16.75V8.13C5.09998 7.16579 4.31419 6.38 3.34998 6.38H1.75ZM1.5 8.13C1.5 7.99422 1.61421 7.88 1.75 7.88H3.34998C3.48576 7.88 3.59998 7.99422 3.59998 8.13V16.75C3.59998 16.8858 3.48576 17 3.34998 17H1.75C1.61421 17 1.5 16.8858 1.5 16.75V8.13ZM0.75 20C0.335786 20 0 20.3358 0 20.75C0 21.1642 0.335786 21.5 0.75 21.5H18.75C19.1642 21.5 19.5 21.1642 19.5 20.75C19.5 20.3358 19.1642 20 18.75 20H0.75Z" fill="var(--fill-0, #001F3E)"/>
</svg>
