<svg preserveAspectRatio="none" width="100%" height="100%" overflow="visible" style="display: block;" viewBox="0 0 19.3328 19.6299" fill="none" xmlns="http://www.w3.org/2000/svg">
<g id="icon">
<path d="M6.75329 10.5254C7.55218 11.2128 8.5927 11.6122 9.68884 11.6123C10.7944 11.6123 11.8166 11.2314 12.6156 10.5439C13.4517 11.2221 14.4921 11.6123 15.5511 11.6123C15.7183 11.6123 15.8855 11.6035 16.0433 11.585C16.1548 11.5757 16.2575 11.5664 16.3597 11.5479C16.6475 11.5107 16.9075 11.4273 17.1674 11.3438C17.7712 11.1394 18.3939 11.5851 18.3939 12.2168V14.9854C18.3937 17.5493 16.3124 19.6299 13.7484 19.6299C13.4978 19.6296 13.2933 19.4255 13.2933 19.1748V16.9541C13.2932 15.7652 12.9309 14.8367 12.225 14.2051C11.6025 13.6384 10.7572 13.3594 9.70739 13.3594C9.4753 13.3594 9.2432 13.3686 8.99255 13.3965C7.33906 13.5637 6.08458 14.9569 6.08434 16.6289V19.1748C6.08434 19.4256 5.8801 19.6299 5.62927 19.6299C3.06533 19.6299 0.984909 17.5493 0.984735 14.9854V12.2354C0.984735 11.5851 1.62505 11.1487 2.22888 11.3623C2.47961 11.4459 2.73058 11.5107 2.99059 11.5479C3.10197 11.5664 3.22295 11.5849 3.33434 11.585C3.48299 11.6035 3.63199 11.6123 3.78063 11.6123C4.85827 11.6123 5.91719 11.2128 6.75329 10.5254Z" fill="var(--fill-0, #0033C9)"/>
<path d="M9.08532 14.3164C11.222 14.0934 12.3651 15.0134 12.3558 16.9551V19.1748C12.3558 19.4255 12.1514 19.6297 11.9008 19.6299H7.46911C7.21828 19.6299 7.01403 19.4256 7.01403 19.1748V16.6299C7.01403 15.4408 7.90555 14.4372 9.08532 14.3164Z" fill="var(--fill-0, #0033C9)"/>
<path d="M14.6595 0C17.3815 0 18.6541 1.14269 19.0443 3.94824L19.3138 6.52148C19.4067 7.48746 19.1562 8.42581 18.599 9.16895C17.9022 10.1351 16.7867 10.6836 15.5511 10.6836C14.3993 10.6835 13.2938 10.1169 12.5785 9.19727C11.9375 10.1261 10.888 10.6834 9.68981 10.6836C8.49143 10.6836 7.41335 10.0984 6.78161 9.16016C6.07556 10.0984 4.95118 10.6836 3.78063 10.6836C2.57303 10.6835 1.48567 10.1638 0.779657 9.24414C0.194445 8.49172 -0.0748719 7.52518 0.0179384 6.53125L0.268915 3.97656C0.66839 1.14308 1.93215 0 4.66345 0H14.6595Z" fill="var(--fill-0, #0033C9)"/>
</g>
</svg>
