<svg preserveAspectRatio="none" width="100%" height="100%" overflow="visible" style="display: block;" viewBox="0 0 21.5 18.4901" fill="none" xmlns="http://www.w3.org/2000/svg">
<g id="icon">
<path d="M4.75 13C4.33579 13 4 13.3358 4 13.75C4 14.1642 4.33579 14.5 4.75 14.5H6.75C7.16421 14.5 7.5 14.1642 7.5 13.75C7.5 13.3358 7.16421 13 6.75 13H4.75Z" fill="var(--fill-0, #001F3E)"/>
<path d="M8.5 13.75C8.5 13.3358 8.83579 13 9.25 13H13.25C13.6642 13 14 13.3358 14 13.75C14 14.1642 13.6642 14.5 13.25 14.5H9.25C8.83579 14.5 8.5 14.1642 8.5 13.75Z" fill="var(--fill-0, #001F3E)"/>
<path fill-rule="evenodd" clip-rule="evenodd" d="M0 5.14C0 3.38883 0.203993 1.99265 1.11143 1.09543C2.01591 0.201125 3.421 0 5.19 0H16.3C18.0737 0 19.4811 0.201043 20.3868 1.09493C21.2961 1.99225 21.5 3.38889 21.5 5.14V13.35C21.5 15.1012 21.296 16.4974 20.3886 17.3946C19.4841 18.2889 18.079 18.49 16.31 18.49H5.19074C3.42249 18.4949 2.01704 18.297 1.11194 17.4038C0.203853 16.5077 0 15.1108 0 13.36V5.14ZM1.50052 5C1.51311 3.33843 1.75245 2.57103 2.16607 2.16207C2.59409 1.73887 3.409 1.5 5.19 1.5H16.3C18.0863 1.5 18.9039 1.73896 19.3332 2.16257C19.7475 2.57144 19.9869 3.33839 19.9995 5H1.50052ZM20 6.5V13.35C20 15.1088 19.759 15.9076 19.3339 16.3279C18.9059 16.7511 18.091 16.99 16.31 16.99L5.19 16.99L5.18789 16.99C3.40679 16.995 2.59272 16.7577 2.16556 16.3362C1.74115 15.9173 1.5 15.1192 1.5 13.36V6.5H20Z" fill="var(--fill-0, #001F3E)"/>
</g>
</svg>
