<svg preserveAspectRatio="none" width="100%" height="100%" overflow="visible" style="display: block;" viewBox="0 0 312 16" fill="none" xmlns="http://www.w3.org/2000/svg">
<path id="Dot" d="M312 0C307.981 3.95267e-07 304.723 3.58172 304.723 8C304.723 12.4183 307.981 16 312 16H0C4.01896 16 7.27734 12.4183 7.27734 8C7.27734 3.58172 4.01896 3.95267e-07 0 0H312ZM11.8789 6.5C11.0505 6.5 10.3789 7.17157 10.3789 8C10.3789 8.82843 11.0505 9.5 11.8789 9.5H15.8809C16.7091 9.49983 17.3809 8.82832 17.3809 8C17.3809 7.17168 16.7091 6.50017 15.8809 6.5H11.8789ZM23.8857 6.5C23.0575 6.50024 22.3857 7.17172 22.3857 8C22.3857 8.82828 23.0575 9.49976 23.8857 9.5H31.8906C32.7189 9.49983 33.3906 8.82832 33.3906 8C33.3906 7.17168 32.7189 6.50017 31.8906 6.5H23.8857ZM39.8955 6.5C39.0673 6.50021 38.3955 7.1717 38.3955 8C38.3955 8.8283 39.0673 9.49979 39.8955 9.5H47.9004C48.7287 9.49983 49.4004 8.82832 49.4004 8C49.4004 7.17168 48.7287 6.50017 47.9004 6.5H39.8955ZM55.9053 6.5C55.077 6.50018 54.4053 7.17168 54.4053 8C54.4053 8.82832 55.077 9.49982 55.9053 9.5H63.9102C64.7384 9.49983 65.4102 8.82832 65.4102 8C65.4102 7.17168 64.7384 6.50017 63.9102 6.5H55.9053ZM71.915 6.5C71.0867 6.50014 70.415 7.17166 70.415 8C70.415 8.82834 71.0867 9.49986 71.915 9.5H79.9199C80.7482 9.49983 81.4199 8.82832 81.4199 8C81.4199 7.17168 80.7482 6.50017 79.9199 6.5H71.915ZM87.9248 6.5C87.0965 6.50011 86.4248 7.17164 86.4248 8C86.4248 8.82836 87.0965 9.49989 87.9248 9.5H95.9297C96.758 9.49983 97.4297 8.82832 97.4297 8C97.4297 7.17168 96.758 6.50017 95.9297 6.5H87.9248ZM103.935 6.5C103.106 6.50008 102.435 7.17162 102.435 8C102.435 8.82838 103.106 9.49992 103.935 9.5H111.939C112.768 9.49983 113.439 8.82832 113.439 8C113.439 7.17168 112.768 6.50017 111.939 6.5H103.935ZM119.944 6.5C119.116 6.50005 118.444 7.1716 118.444 8C118.444 8.8284 119.116 9.49995 119.944 9.5H127.949C128.778 9.49983 129.449 8.82832 129.449 8C129.449 7.17168 128.778 6.50017 127.949 6.5H119.944ZM135.954 6.5C135.126 6.50001 134.454 7.17158 134.454 8C134.454 8.82842 135.126 9.49999 135.954 9.5H143.959C144.787 9.49983 145.459 8.82832 145.459 8C145.459 7.17168 144.787 6.50017 143.959 6.5H135.954ZM151.964 6.5C151.135 6.5 150.464 7.17157 150.464 8C150.464 8.82843 151.135 9.5 151.964 9.5H159.969C160.797 9.4998 161.469 8.8283 161.469 8C161.469 7.1717 160.797 6.5002 159.969 6.5H151.964ZM167.974 6.5C167.145 6.5 166.474 7.17157 166.474 8C166.474 8.82843 167.145 9.5 167.974 9.5H175.979C176.807 9.49977 177.479 8.82828 177.479 8C177.479 7.17172 176.807 6.50023 175.979 6.5H167.974ZM183.983 6.5C183.155 6.5 182.483 7.17157 182.483 8C182.483 8.82843 183.155 9.5 183.983 9.5H191.988C192.816 9.49973 193.488 8.82826 193.488 8C193.488 7.17174 192.816 6.50027 191.988 6.5H183.983ZM199.993 6.5C199.165 6.5 198.493 7.17157 198.493 8C198.493 8.82843 199.165 9.5 199.993 9.5H207.998C208.826 9.4997 209.498 8.82824 209.498 8C209.498 7.17176 208.826 6.5003 207.998 6.5H199.993ZM216.003 6.5C215.175 6.5 214.503 7.17157 214.503 8C214.503 8.82843 215.175 9.5 216.003 9.5H224.008C224.836 9.49967 225.508 8.82822 225.508 8C225.508 7.17178 224.836 6.50033 224.008 6.5H216.003ZM232.013 6.5C231.184 6.5 230.513 7.17157 230.513 8C230.513 8.82843 231.184 9.5 232.013 9.5H240.018C240.846 9.49963 241.518 8.8282 241.518 8C241.518 7.1718 240.846 6.50037 240.018 6.5H232.013ZM248.022 6.5C247.194 6.5 246.522 7.17157 246.522 8C246.522 8.82843 247.194 9.5 248.022 9.5H256.027C256.855 9.4996 257.527 8.82818 257.527 8C257.527 7.17182 256.855 6.5004 256.027 6.5H248.022ZM264.032 6.5C263.204 6.5 262.532 7.17157 262.532 8C262.532 8.82843 263.204 9.5 264.032 9.5H272.037C272.865 9.49957 273.537 8.82816 273.537 8C273.537 7.17184 272.865 6.50043 272.037 6.5H264.032ZM280.041 6.5C279.213 6.50025 278.541 7.17173 278.541 8C278.541 8.82827 279.213 9.49975 280.041 9.5H288.046C288.874 9.49983 289.546 8.82832 289.546 8C289.546 7.17168 288.874 6.50017 288.046 6.5H280.041ZM296.051 6.5C295.223 6.50021 294.551 7.17171 294.551 8C294.551 8.82829 295.223 9.49979 296.051 9.5H300.054C300.882 9.4998 301.554 8.8283 301.554 8C301.554 7.1717 300.882 6.5002 300.054 6.5H296.051Z" fill="var(--fill-0, white)"/>
</svg>
