<svg width="24" height="24" viewBox="0 0 24 24" fill="none" xmlns="http://www.w3.org/2000/svg">
<path fill-rule="evenodd" clip-rule="evenodd" d="M13.4984 4.25127C13.4984 3.36004 14.5762 2.91402 15.206 3.54465C16.1498 4.4897 19.5088 7.96245 21.4066 9.92709C22.4366 10.9934 22.4351 12.6797 21.4032 13.7441C19.517 15.69 16.1907 19.1171 15.206 20.1032C14.5762 20.7338 13.4984 20.2878 13.4984 19.3965V16.1719C10.465 15.8512 8.3561 16.3142 6.78488 17.0655C5.08846 17.8766 3.95314 19.0509 2.90123 20.1462C2.77951 20.2729 2.65763 20.3998 2.53747 20.5233C2.32089 20.7458 1.98958 20.8119 1.70422 20.6894C1.41887 20.5669 1.23849 20.2813 1.25057 19.971C1.47106 14.3075 3.60939 10.8849 6.3324 8.9655C8.6909 7.30301 11.4075 6.82502 13.4984 6.89937V4.25127ZM14.9984 5.47212V7.70608C14.9984 7.91976 14.9073 8.1233 14.7479 8.26559C14.5885 8.40789 14.3759 8.47543 14.1636 8.45127C12.2738 8.23618 9.51438 8.55774 7.19662 10.1915C5.22783 11.5793 3.4986 13.9696 2.92931 17.9871C3.77808 17.1796 4.80529 16.3493 6.13784 15.7122C8.12376 14.7627 10.723 14.2688 14.35 14.7644C14.7215 14.8152 14.9984 15.1325 14.9984 15.5075V18.1775C16.4093 16.738 18.8196 14.2544 20.3262 12.7001C20.7948 12.2167 20.7955 11.4534 20.3277 10.9692C18.8174 9.40574 16.3992 6.90525 14.9984 5.47212Z" fill="#001F3E"/>
</svg>
